<mxfile host="app.diagrams.net" agent="Mozilla/5.0 (X11; Linux x86_64) AppleWebKit/537.36 (KHTML, like Gecko) Chrome/131.0.0.0 Safari/537.36" version="26.0.10">
  <diagram id="C5RBs43oDa-KdzZeNtuy" name="Page-1">
    <mxGraphModel dx="581" dy="1921" grid="1" gridSize="10" guides="1" tooltips="1" connect="1" arrows="1" fold="1" page="1" pageScale="1" pageWidth="827" pageHeight="1169" math="0" shadow="0">
      <root>
        <mxCell id="WIyWlLk6GJQsqaUBKTNV-0" />
        <mxCell id="WIyWlLk6GJQsqaUBKTNV-1" parent="WIyWlLk6GJQsqaUBKTNV-0" />
        <mxCell id="WIyWlLk6GJQsqaUBKTNV-2" value="" style="rounded=0;html=1;jettySize=auto;orthogonalLoop=1;fontSize=11;endArrow=block;endFill=0;endSize=8;strokeWidth=1;shadow=0;labelBackgroundColor=none;edgeStyle=orthogonalEdgeStyle;" parent="WIyWlLk6GJQsqaUBKTNV-1" source="WIyWlLk6GJQsqaUBKTNV-3" edge="1" target="WIyWlLk6GJQsqaUBKTNV-6">
          <mxGeometry relative="1" as="geometry">
            <mxPoint x="630" y="150" as="targetPoint" />
            <Array as="points" />
          </mxGeometry>
        </mxCell>
        <mxCell id="WIyWlLk6GJQsqaUBKTNV-3" value="(Stanby mode)&lt;div&gt;Blue LED on&lt;/div&gt;" style="rounded=1;whiteSpace=wrap;html=1;fontSize=12;glass=0;strokeWidth=1;shadow=0;" parent="WIyWlLk6GJQsqaUBKTNV-1" vertex="1">
          <mxGeometry x="570" y="60" width="120" height="50" as="geometry" />
        </mxCell>
        <mxCell id="WIyWlLk6GJQsqaUBKTNV-6" value="Btn pressed&amp;nbsp;&lt;div&gt;LED_G on&lt;/div&gt;&lt;div&gt;LED_B off&lt;/div&gt;" style="rhombus;whiteSpace=wrap;html=1;shadow=0;fontFamily=Helvetica;fontSize=12;align=center;strokeWidth=1;spacing=6;spacingTop=-4;" parent="WIyWlLk6GJQsqaUBKTNV-1" vertex="1">
          <mxGeometry x="565" y="150" width="130" height="90" as="geometry" />
        </mxCell>
        <mxCell id="innuWxYT5MC4HVouVCik-4" value="&amp;nbsp;No" style="edgeStyle=orthogonalEdgeStyle;rounded=0;html=1;jettySize=auto;orthogonalLoop=1;fontSize=11;endArrow=block;endFill=0;endSize=8;strokeWidth=1;shadow=0;labelBackgroundColor=none;entryX=1;entryY=0.5;entryDx=0;entryDy=0;exitX=1;exitY=0.5;exitDx=0;exitDy=0;" parent="WIyWlLk6GJQsqaUBKTNV-1" edge="1" source="WIyWlLk6GJQsqaUBKTNV-6">
          <mxGeometry y="-20" relative="1" as="geometry">
            <mxPoint as="offset" />
            <mxPoint x="680" y="190" as="sourcePoint" />
            <mxPoint x="689.9999999999998" y="80" as="targetPoint" />
            <Array as="points">
              <mxPoint x="810" y="195" />
              <mxPoint x="810" y="80" />
            </Array>
          </mxGeometry>
        </mxCell>
        <mxCell id="innuWxYT5MC4HVouVCik-6" value="Yes" style="edgeStyle=orthogonalEdgeStyle;rounded=0;html=1;jettySize=auto;orthogonalLoop=1;fontSize=11;endArrow=block;endFill=0;endSize=8;strokeWidth=1;shadow=0;labelBackgroundColor=none;entryX=0.5;entryY=0;entryDx=0;entryDy=0;" parent="WIyWlLk6GJQsqaUBKTNV-1" edge="1" target="9cQ_8xVSp9rurpWO9p4a-2" source="WIyWlLk6GJQsqaUBKTNV-6">
          <mxGeometry x="-0.2" y="10" relative="1" as="geometry">
            <mxPoint as="offset" />
            <mxPoint x="630" y="240" as="sourcePoint" />
            <mxPoint x="630" y="280" as="targetPoint" />
          </mxGeometry>
        </mxCell>
        <mxCell id="innuWxYT5MC4HVouVCik-12" value="Yes" style="edgeStyle=orthogonalEdgeStyle;rounded=0;html=1;jettySize=auto;orthogonalLoop=1;fontSize=11;endArrow=block;endFill=0;endSize=8;strokeWidth=1;shadow=0;labelBackgroundColor=none;exitX=1;exitY=0.5;exitDx=0;exitDy=0;" parent="WIyWlLk6GJQsqaUBKTNV-1" edge="1" source="9cQ_8xVSp9rurpWO9p4a-2">
          <mxGeometry x="0.0787" y="-20" relative="1" as="geometry">
            <mxPoint as="offset" />
            <mxPoint x="680" y="319.6" as="sourcePoint" />
            <mxPoint x="810" y="200" as="targetPoint" />
          </mxGeometry>
        </mxCell>
        <mxCell id="innuWxYT5MC4HVouVCik-15" value="Yellow LED on&lt;div&gt;go upstair&lt;/div&gt;" style="rounded=1;whiteSpace=wrap;html=1;fontSize=12;glass=0;strokeWidth=1;shadow=0;" parent="WIyWlLk6GJQsqaUBKTNV-1" vertex="1">
          <mxGeometry x="881" y="840" width="120" height="40" as="geometry" />
        </mxCell>
        <mxCell id="innuWxYT5MC4HVouVCik-16" value="Arrived?" style="rhombus;whiteSpace=wrap;html=1;shadow=0;fontFamily=Helvetica;fontSize=12;align=center;strokeWidth=1;spacing=6;spacingTop=-4;" parent="WIyWlLk6GJQsqaUBKTNV-1" vertex="1">
          <mxGeometry x="891" y="930" width="100" height="80" as="geometry" />
        </mxCell>
        <mxCell id="innuWxYT5MC4HVouVCik-26" value="" style="edgeStyle=orthogonalEdgeStyle;rounded=0;html=1;jettySize=auto;orthogonalLoop=1;fontSize=11;endArrow=block;endFill=0;endSize=8;strokeWidth=1;shadow=0;labelBackgroundColor=none;exitX=1;exitY=0.5;exitDx=0;exitDy=0;entryX=0;entryY=0.5;entryDx=0;entryDy=0;" parent="WIyWlLk6GJQsqaUBKTNV-1" edge="1" target="9cQ_8xVSp9rurpWO9p4a-15" source="9cQ_8xVSp9rurpWO9p4a-20">
          <mxGeometry x="-0.2" y="10" relative="1" as="geometry">
            <mxPoint as="offset" />
            <mxPoint x="750" y="790" as="sourcePoint" />
            <mxPoint x="750" y="840" as="targetPoint" />
          </mxGeometry>
        </mxCell>
        <mxCell id="innuWxYT5MC4HVouVCik-29" value="&amp;nbsp;No" style="edgeStyle=orthogonalEdgeStyle;rounded=0;html=1;jettySize=auto;orthogonalLoop=1;fontSize=11;endArrow=block;endFill=0;endSize=8;strokeWidth=1;shadow=0;labelBackgroundColor=none;entryX=0;entryY=0.5;entryDx=0;entryDy=0;" parent="WIyWlLk6GJQsqaUBKTNV-1" target="innuWxYT5MC4HVouVCik-15" edge="1">
          <mxGeometry x="0.0895" y="20" relative="1" as="geometry">
            <mxPoint as="offset" />
            <mxPoint x="891" y="969.5999999999999" as="sourcePoint" />
            <mxPoint x="831" y="770" as="targetPoint" />
            <Array as="points">
              <mxPoint x="831" y="970" />
              <mxPoint x="831" y="860" />
            </Array>
          </mxGeometry>
        </mxCell>
        <mxCell id="innuWxYT5MC4HVouVCik-33" value="Yellow LED off&lt;div&gt;Red LED on&lt;/div&gt;" style="rounded=1;whiteSpace=wrap;html=1;fontSize=12;glass=0;strokeWidth=1;shadow=0;" parent="WIyWlLk6GJQsqaUBKTNV-1" vertex="1">
          <mxGeometry x="971" y="1060" width="120" height="40" as="geometry" />
        </mxCell>
        <mxCell id="innuWxYT5MC4HVouVCik-68" style="edgeStyle=orthogonalEdgeStyle;rounded=0;orthogonalLoop=1;jettySize=auto;html=1;" parent="WIyWlLk6GJQsqaUBKTNV-1" edge="1">
          <mxGeometry relative="1" as="geometry">
            <mxPoint x="590" y="890" as="sourcePoint" />
            <Array as="points">
              <mxPoint x="590" y="890" />
              <mxPoint x="300" y="890" />
              <mxPoint x="300" y="100" />
            </Array>
            <mxPoint x="440" y="100" as="targetPoint" />
          </mxGeometry>
        </mxCell>
        <mxCell id="innuWxYT5MC4HVouVCik-42" value="Yes" style="edgeStyle=orthogonalEdgeStyle;rounded=0;html=1;jettySize=auto;orthogonalLoop=1;fontSize=11;endArrow=block;endFill=0;endSize=8;strokeWidth=1;shadow=0;labelBackgroundColor=none;" parent="WIyWlLk6GJQsqaUBKTNV-1" edge="1">
          <mxGeometry x="0.2" y="20" relative="1" as="geometry">
            <mxPoint as="offset" />
            <mxPoint x="1030.65" y="1100" as="sourcePoint" />
            <mxPoint x="1030.65" y="1150" as="targetPoint" />
          </mxGeometry>
        </mxCell>
        <mxCell id="innuWxYT5MC4HVouVCik-43" value="5 seconds?" style="rhombus;whiteSpace=wrap;html=1;shadow=0;fontFamily=Helvetica;fontSize=12;align=center;strokeWidth=1;spacing=6;spacingTop=-4;" parent="WIyWlLk6GJQsqaUBKTNV-1" vertex="1">
          <mxGeometry x="981" y="1150" width="100" height="80" as="geometry" />
        </mxCell>
        <mxCell id="innuWxYT5MC4HVouVCik-45" value="Go down&lt;div&gt;Green LED on&lt;/div&gt;" style="rhombus;whiteSpace=wrap;html=1;shadow=0;fontFamily=Helvetica;fontSize=12;align=center;strokeWidth=1;spacing=6;spacingTop=-4;" parent="WIyWlLk6GJQsqaUBKTNV-1" vertex="1">
          <mxGeometry x="870" y="500" width="100" height="80" as="geometry" />
        </mxCell>
        <mxCell id="innuWxYT5MC4HVouVCik-54" value="Yellow LED on&lt;div&gt;go downstair&lt;/div&gt;" style="rounded=1;whiteSpace=wrap;html=1;fontSize=12;glass=0;strokeWidth=1;shadow=0;" parent="WIyWlLk6GJQsqaUBKTNV-1" vertex="1">
          <mxGeometry x="1061" y="840" width="120" height="40" as="geometry" />
        </mxCell>
        <mxCell id="innuWxYT5MC4HVouVCik-55" value="" style="edgeStyle=orthogonalEdgeStyle;rounded=0;html=1;jettySize=auto;orthogonalLoop=1;fontSize=11;endArrow=block;endFill=0;endSize=8;strokeWidth=1;shadow=0;labelBackgroundColor=none;" parent="WIyWlLk6GJQsqaUBKTNV-1" edge="1">
          <mxGeometry x="-0.2" y="10" relative="1" as="geometry">
            <mxPoint as="offset" />
            <mxPoint x="1120.6599999999999" y="880" as="sourcePoint" />
            <mxPoint x="1120.6599999999999" y="930" as="targetPoint" />
          </mxGeometry>
        </mxCell>
        <mxCell id="innuWxYT5MC4HVouVCik-56" value="Arrived?" style="rhombus;whiteSpace=wrap;html=1;shadow=0;fontFamily=Helvetica;fontSize=12;align=center;strokeWidth=1;spacing=6;spacingTop=-4;" parent="WIyWlLk6GJQsqaUBKTNV-1" vertex="1">
          <mxGeometry x="1071" y="930" width="100" height="80" as="geometry" />
        </mxCell>
        <mxCell id="innuWxYT5MC4HVouVCik-58" value="" style="strokeWidth=2;html=1;shape=mxgraph.flowchart.annotation_2;align=left;labelPosition=right;pointerEvents=1;rotation=-90;" parent="WIyWlLk6GJQsqaUBKTNV-1" vertex="1">
          <mxGeometry x="1007.8" y="943.81" width="46.39" height="183.75" as="geometry" />
        </mxCell>
        <mxCell id="innuWxYT5MC4HVouVCik-61" value="Yes" style="text;html=1;align=center;verticalAlign=middle;whiteSpace=wrap;rounded=0;" parent="WIyWlLk6GJQsqaUBKTNV-1" vertex="1">
          <mxGeometry x="1001" y="1000" width="60" height="30" as="geometry" />
        </mxCell>
        <mxCell id="innuWxYT5MC4HVouVCik-66" value="&amp;nbsp;No" style="edgeStyle=orthogonalEdgeStyle;rounded=0;html=1;jettySize=auto;orthogonalLoop=1;fontSize=11;endArrow=block;endFill=0;endSize=8;strokeWidth=1;shadow=0;labelBackgroundColor=none;entryX=1;entryY=0.5;entryDx=0;entryDy=0;" parent="WIyWlLk6GJQsqaUBKTNV-1" source="innuWxYT5MC4HVouVCik-56" target="innuWxYT5MC4HVouVCik-54" edge="1">
          <mxGeometry x="0.0895" y="20" relative="1" as="geometry">
            <mxPoint as="offset" />
            <mxPoint x="1301" y="969.5999999999999" as="sourcePoint" />
            <mxPoint x="1291" y="860" as="targetPoint" />
            <Array as="points">
              <mxPoint x="1241" y="970" />
              <mxPoint x="1241" y="860" />
            </Array>
          </mxGeometry>
        </mxCell>
        <mxCell id="innuWxYT5MC4HVouVCik-69" value="Yes" style="text;html=1;align=center;verticalAlign=middle;whiteSpace=wrap;rounded=0;" parent="WIyWlLk6GJQsqaUBKTNV-1" vertex="1">
          <mxGeometry x="390" y="847.9" width="60" height="30" as="geometry" />
        </mxCell>
        <mxCell id="9cQ_8xVSp9rurpWO9p4a-0" value="start" style="ellipse;whiteSpace=wrap;html=1;" vertex="1" parent="WIyWlLk6GJQsqaUBKTNV-1">
          <mxGeometry x="570" y="-70" width="120" height="80" as="geometry" />
        </mxCell>
        <mxCell id="9cQ_8xVSp9rurpWO9p4a-1" value="" style="rounded=0;html=1;jettySize=auto;orthogonalLoop=1;fontSize=11;endArrow=block;endFill=0;endSize=8;strokeWidth=1;shadow=0;labelBackgroundColor=none;edgeStyle=orthogonalEdgeStyle;" edge="1" parent="WIyWlLk6GJQsqaUBKTNV-1">
          <mxGeometry relative="1" as="geometry">
            <mxPoint x="629.6" y="59.959999999999994" as="targetPoint" />
            <Array as="points">
              <mxPoint x="629.6" y="59.959999999999994" />
            </Array>
            <mxPoint x="629.6" y="9.959999999999994" as="sourcePoint" />
          </mxGeometry>
        </mxCell>
        <mxCell id="9cQ_8xVSp9rurpWO9p4a-2" value="Double pressed&lt;div&gt;LED_G off&lt;/div&gt;" style="rhombus;whiteSpace=wrap;html=1;shadow=0;fontFamily=Helvetica;fontSize=12;align=center;strokeWidth=1;spacing=6;spacingTop=-4;" vertex="1" parent="WIyWlLk6GJQsqaUBKTNV-1">
          <mxGeometry x="570" y="300" width="120" height="80" as="geometry" />
        </mxCell>
        <mxCell id="9cQ_8xVSp9rurpWO9p4a-3" value="No" style="edgeStyle=orthogonalEdgeStyle;rounded=0;html=1;jettySize=auto;orthogonalLoop=1;fontSize=11;endArrow=block;endFill=0;endSize=8;strokeWidth=1;shadow=0;labelBackgroundColor=none;" edge="1" parent="WIyWlLk6GJQsqaUBKTNV-1">
          <mxGeometry x="-0.2" y="10" relative="1" as="geometry">
            <mxPoint as="offset" />
            <mxPoint x="629.67" y="380" as="sourcePoint" />
            <mxPoint x="629.67" y="430" as="targetPoint" />
          </mxGeometry>
        </mxCell>
        <mxCell id="9cQ_8xVSp9rurpWO9p4a-7" value="CurrentF == TargetF&amp;nbsp;" style="rhombus;whiteSpace=wrap;html=1;shadow=0;fontFamily=Helvetica;fontSize=12;align=center;strokeWidth=1;spacing=6;spacingTop=-4;" vertex="1" parent="WIyWlLk6GJQsqaUBKTNV-1">
          <mxGeometry x="565" y="430" width="130" height="100" as="geometry" />
        </mxCell>
        <mxCell id="9cQ_8xVSp9rurpWO9p4a-10" value="CurrentF &amp;lt; TargetF&amp;nbsp;" style="rhombus;whiteSpace=wrap;html=1;shadow=0;fontFamily=Helvetica;fontSize=12;align=center;strokeWidth=1;spacing=6;spacingTop=-4;" vertex="1" parent="WIyWlLk6GJQsqaUBKTNV-1">
          <mxGeometry x="565" y="590" width="130" height="100" as="geometry" />
        </mxCell>
        <mxCell id="9cQ_8xVSp9rurpWO9p4a-15" value="Interrupt Btn &amp;lt; targetF" style="rhombus;whiteSpace=wrap;html=1;shadow=0;fontFamily=Helvetica;fontSize=12;align=center;strokeWidth=1;spacing=6;spacingTop=-4;" vertex="1" parent="WIyWlLk6GJQsqaUBKTNV-1">
          <mxGeometry x="785" y="720" width="130" height="100" as="geometry" />
        </mxCell>
        <mxCell id="9cQ_8xVSp9rurpWO9p4a-16" value="Yes" style="edgeStyle=orthogonalEdgeStyle;rounded=0;html=1;jettySize=auto;orthogonalLoop=1;fontSize=11;endArrow=block;endFill=0;endSize=8;strokeWidth=1;shadow=0;labelBackgroundColor=none;exitX=1;exitY=0.5;exitDx=0;exitDy=0;" edge="1" parent="WIyWlLk6GJQsqaUBKTNV-1" source="9cQ_8xVSp9rurpWO9p4a-7">
          <mxGeometry x="-0.0997" y="20" relative="1" as="geometry">
            <mxPoint as="offset" />
            <mxPoint x="750" y="538.7" as="sourcePoint" />
            <mxPoint x="750" y="480" as="targetPoint" />
          </mxGeometry>
        </mxCell>
        <mxCell id="9cQ_8xVSp9rurpWO9p4a-24" style="edgeStyle=orthogonalEdgeStyle;rounded=0;orthogonalLoop=1;jettySize=auto;html=1;" edge="1" parent="WIyWlLk6GJQsqaUBKTNV-1" source="9cQ_8xVSp9rurpWO9p4a-17">
          <mxGeometry relative="1" as="geometry">
            <mxPoint x="810" y="340" as="targetPoint" />
          </mxGeometry>
        </mxCell>
        <mxCell id="9cQ_8xVSp9rurpWO9p4a-17" value="LED_R on" style="rounded=1;whiteSpace=wrap;html=1;" vertex="1" parent="WIyWlLk6GJQsqaUBKTNV-1">
          <mxGeometry x="750" y="450" width="120" height="60" as="geometry" />
        </mxCell>
        <mxCell id="9cQ_8xVSp9rurpWO9p4a-19" value="No" style="edgeStyle=orthogonalEdgeStyle;rounded=0;html=1;jettySize=auto;orthogonalLoop=1;fontSize=11;endArrow=block;endFill=0;endSize=8;strokeWidth=1;shadow=0;labelBackgroundColor=none;exitX=1;exitY=0.5;exitDx=0;exitDy=0;entryX=0;entryY=0.5;entryDx=0;entryDy=0;" edge="1" parent="WIyWlLk6GJQsqaUBKTNV-1" source="9cQ_8xVSp9rurpWO9p4a-10" target="9cQ_8xVSp9rurpWO9p4a-26">
          <mxGeometry x="-0.0789" y="10" relative="1" as="geometry">
            <mxPoint as="offset" />
            <mxPoint x="720" y="680" as="sourcePoint" />
            <mxPoint x="750" y="640" as="targetPoint" />
          </mxGeometry>
        </mxCell>
        <mxCell id="9cQ_8xVSp9rurpWO9p4a-20" value="Yellow LED on&lt;div&gt;go upstair&lt;/div&gt;" style="rounded=1;whiteSpace=wrap;html=1;fontSize=12;glass=0;strokeWidth=1;shadow=0;" vertex="1" parent="WIyWlLk6GJQsqaUBKTNV-1">
          <mxGeometry x="545" y="750" width="170" height="40" as="geometry" />
        </mxCell>
        <mxCell id="9cQ_8xVSp9rurpWO9p4a-21" value="No" style="edgeStyle=orthogonalEdgeStyle;rounded=0;html=1;jettySize=auto;orthogonalLoop=1;fontSize=11;endArrow=block;endFill=0;endSize=8;strokeWidth=1;shadow=0;labelBackgroundColor=none;exitX=0.5;exitY=1;exitDx=0;exitDy=0;entryX=0.5;entryY=0;entryDx=0;entryDy=0;" edge="1" parent="WIyWlLk6GJQsqaUBKTNV-1" source="9cQ_8xVSp9rurpWO9p4a-7" target="9cQ_8xVSp9rurpWO9p4a-10">
          <mxGeometry x="-0.3333" y="15" relative="1" as="geometry">
            <mxPoint as="offset" />
            <mxPoint x="635" y="620" as="sourcePoint" />
            <mxPoint x="680" y="620" as="targetPoint" />
          </mxGeometry>
        </mxCell>
        <mxCell id="9cQ_8xVSp9rurpWO9p4a-22" value="Yes" style="edgeStyle=orthogonalEdgeStyle;rounded=0;html=1;jettySize=auto;orthogonalLoop=1;fontSize=11;endArrow=block;endFill=0;endSize=8;strokeWidth=1;shadow=0;labelBackgroundColor=none;exitX=0.5;exitY=1;exitDx=0;exitDy=0;" edge="1" parent="WIyWlLk6GJQsqaUBKTNV-1" source="9cQ_8xVSp9rurpWO9p4a-10">
          <mxGeometry x="-0.3333" y="15" relative="1" as="geometry">
            <mxPoint as="offset" />
            <mxPoint x="630" y="750" as="sourcePoint" />
            <mxPoint x="630" y="750" as="targetPoint" />
          </mxGeometry>
        </mxCell>
        <mxCell id="9cQ_8xVSp9rurpWO9p4a-23" style="edgeStyle=orthogonalEdgeStyle;rounded=0;orthogonalLoop=1;jettySize=auto;html=1;exitX=0.5;exitY=1;exitDx=0;exitDy=0;" edge="1" parent="WIyWlLk6GJQsqaUBKTNV-1" source="9cQ_8xVSp9rurpWO9p4a-2" target="9cQ_8xVSp9rurpWO9p4a-2">
          <mxGeometry relative="1" as="geometry" />
        </mxCell>
        <mxCell id="9cQ_8xVSp9rurpWO9p4a-26" value="Yellow LED on&lt;div&gt;go down&lt;/div&gt;" style="rounded=1;whiteSpace=wrap;html=1;fontSize=12;glass=0;strokeWidth=1;shadow=0;" vertex="1" parent="WIyWlLk6GJQsqaUBKTNV-1">
          <mxGeometry x="790" y="620" width="120" height="40" as="geometry" />
        </mxCell>
      </root>
    </mxGraphModel>
  </diagram>
</mxfile>
